# xmcd
#
# Track frame offsets:
#	150
#	14045
#	23547
#	37550
#	48390
#	63080
#	72225
#	85852
#	97622
#	110850
#	122580
#	134185
#	142665
#	154057
#
# Disc length: 2249 seconds
#
# Revision: 0
# Processed by: cddbd v1.4PL0 Copyright (c) Steve Scherf et al.
# Submitted via: audiograbber 1.81.01
#
DISCID=ad08c70e
DTITLE=Willie Nelson - Forever Gold
DYEAR=1999
DGENRE=Country
TTITLE0=No Tomorrow in Sight
TTITLE1=One Step Beyond
TTITLE2=Home Is Where You're Happy
TTITLE3=Blame It on the Times
TTITLE4=Will You Remember Mine
TTITLE5=Wastin' Time
TTITLE6=You'll Always Have Someone
TTITLE7=December Day
TTITLE8=I Just Don't Understand
TTITLE9=Is There Something on Your Mind
TTITLE10=Suffering in Silence
TTITLE11=You Wouldn't Cross the Street to Say Goodbye
TTITLE12=I'm Gonna Lose a Lot of Teardrops
TTITLE13=What Can You Do to Me Now
EXTD=
EXTT0=
EXTT1=
EXTT2=
EXTT3=
EXTT4=
EXTT5=
EXTT6=
EXTT7=
EXTT8=
EXTT9=
EXTT10=
EXTT11=
EXTT12=
EXTT13=
PLAYORDER=
